<svg xmlns="http://www.w3.org/2000/svg" viewBox="0 0 220 60" width="220" height="60">
  <defs>
    <linearGradient id="gradient" x1="0%" y1="0%" x2="100%" y2="100%">
      <stop offset="0%" style="stop-color:#9A3412"/>
      <stop offset="50%" style="stop-color:#7C2D12"/>
      <stop offset="100%" style="stop-color:#431407"/>
    </linearGradient>
    <linearGradient id="text-gradient" x1="0%" y1="0%" x2="100%" y2="100%">
      <stop offset="0%" style="stop-color:#FB923C"/>
      <stop offset="100%" style="stop-color:#FDBA74"/>
    </linearGradient>
  </defs>

  <!-- Icon -->
  <g transform="translate(5, 7)">
    <!-- Outer rounded square -->
    <rect x="0" y="0" width="46" height="46" rx="10" fill="url(#gradient)"/>

    <!-- Cupped hand constellation (scaled) -->
    <g stroke="#FB923C" stroke-width="1.2" opacity="0.8" fill="none" transform="scale(0.72)">
      <line x1="10" y1="24" x2="14" y2="32"/><line x1="14" y1="32" x2="20" y2="40"/>
      <line x1="16" y1="14" x2="18" y2="24"/><line x1="18" y1="24" x2="24" y2="36"/>
      <line x1="28" y1="10" x2="28" y2="22"/><line x1="28" y1="22" x2="30" y2="36"/>
      <line x1="40" y1="12" x2="40" y2="24"/><line x1="40" y1="24" x2="38" y2="38"/>
      <line x1="54" y1="28" x2="48" y2="36"/><line x1="48" y1="36" x2="42" y2="42"/>
      <line x1="20" y1="40" x2="30" y2="44"/><line x1="30" y1="44" x2="42" y2="42"/>
      <line x1="20" y1="40" x2="22" y2="54"/><line x1="42" y1="42" x2="40" y2="54"/>
      <line x1="22" y1="54" x2="40" y2="54"/>
    </g>

    <!-- Star nodes (scaled) -->
    <g fill="#FDBA74" transform="scale(0.72)">
      <circle cx="10" cy="24" r="3"/><circle cx="14" cy="32" r="2.5"/><circle cx="20" cy="40" r="2.5"/>
      <circle cx="16" cy="14" r="3.5"/><circle cx="18" cy="24" r="2.5"/><circle cx="24" cy="36" r="2"/>
      <circle cx="28" cy="10" r="4"/><circle cx="28" cy="22" r="2.5"/><circle cx="30" cy="36" r="2"/>
      <circle cx="40" cy="12" r="3.5"/><circle cx="40" cy="24" r="2.5"/><circle cx="38" cy="38" r="2"/>
      <circle cx="54" cy="28" r="3.5"/><circle cx="48" cy="36" r="2.5"/><circle cx="42" cy="42" r="2.5"/>
      <circle cx="30" cy="44" r="2"/>
      <circle cx="22" cy="54" r="2.5"/><circle cx="40" cy="54" r="2.5"/>
    </g>
  </g>

  <!-- Text "gitgrip" - for dark backgrounds -->
  <text x="60" y="42" font-family="system-ui, -apple-system, 'Segoe UI', Roboto, sans-serif" font-size="32" font-weight="700" fill="url(#text-gradient)">gitgrip</text>
</svg>
